<svg xmlns="http://www.w3.org/2000/svg" xml:space="preserve" width="655.359" height="655.359" style="shape-rendering:geometricPrecision;text-rendering:geometricPrecision;image-rendering:optimizeQuality;fill-rule:evenodd;clip-rule:evenodd" viewBox="0 0 6.827 6.827"><defs><style>.fil0{fill:none}.fil6{fill:#74b377}.fil4{fill:#81c784}</style></defs><g id="Layer_x0020_1"><g id="_312545912"><path id="_312545984" class="fil0" d="M0 0h6.827v6.827H0z"/><path id="_312545792" class="fil0" d="M.853.853h5.12v5.12H.853z"/></g><path d="M4.269 1.631a2.54 2.54 0 0 0-.695-.206A3.028 3.028 0 0 1 5.12 2.889a3.028 3.028 0 0 1-.009 2.695 2.527 2.527 0 0 0-.842-3.953z" style="fill:#263238;fill-rule:nonzero"/><path style="fill:#ff8f00" d="m2.824.853.119.419.433.133-.419.118-.133.433-.118-.418-.433-.133.418-.119z"/><g id="_312544040"><circle id="_312545240" cx="3.047" cy="4.02" r="1.955" style="fill:#1e88e5"/><path id="_312545480" class="fil4" d="m4.022 2.837.004.031-.047.01-.007.068h.057l.076-.008.04-.046-.042-.016-.023-.026-.034-.056-.017-.078-.064.013-.018.028v.031l.03.02z"/><path id="_312545744" class="fil4" d="m3.968 2.863.003-.042-.038-.017-.052.012-.04.063v.04h.046z"/><path id="_312545360" class="fil4" d="m2.885 3.042-.012.03h-.056V3.1h.013l.002.014.035-.003.021-.013.006-.027.028-.002.01-.023-.025-.005h-.022z"/><path id="_312545096" class="fil4" d="m2.74 3.095-.002.028.04-.003.005-.029-.025-.02z"/><path id="_312545072" class="fil4" d="M4.339 2.553c.045.04.089.082.13.126v.095l-.084.043.009.028.134.001.038-.057c.086.106.16.221.223.344l-.012.013v.087l.038-.005h.02l.036.086-.102.002-.051-.056-.01-.09-.052.028-.029.11-.075-.08-.003-.076-.073-.063-.027-.027h-.085l.027.076.102.056.018.02-.022.01v.06l-.05.02-.041-.009-.027-.037.069.003.019-.024-.153-.104-.012-.043-.062.056-.063-.013-.096.124-.018.05-.062.005h-.09l-.054-.025-.016-.108.02-.051.091-.02.1.02.013-.056-.043-.01.015-.086.101-.016.071-.1.073-.013.066.01h.024l-.013-.094-.08.033-.028-.07-.047-.007-.009-.048.038-.041.09-.036.024-.041zm.584.917c.01.033.02.067.027.102l-.005.006.011.021a1.96 1.96 0 0 1-.392 1.654H4.5v-.13l-.075-.1v-.157l-.057-.056-.004-.065.072-.139-.137-.242.016-.164-.124-.013-.045-.046h-.083l-.042.04h-.147l-.004.013h-.082L3.6 3.98l.002-.165.03-.012.012-.063h-.044l-.018-.067.216-.156v-.11l.106-.06.043.005h.087l.068-.036.22-.018v.113l.173.044.034.024h.032v-.061l.1-.01.095.071h.156l.01-.01zm-3.676-.214c.022-.05.045-.1.071-.149l.08-.097-.003-.035c.132-.21.304-.392.504-.537h.097l.044.024.083.018.006.032.132.005-.018-.042-.116-.004.027-.025-.01-.031h-.106l.116-.086h.11l.052.071.087.006.052-.05.039.018-.072.07-.094.002c.005 0 .008.068.008.068l.12-.003.013-.032.083-.005.01-.05-.049-.007.016-.044.038-.012.13.007-.072.065.011.05.075.012-.004-.091.071-.038.127-.014.184.081v.07l.058.015-.03.055h-.082l-.025.063-.189-.045.149-.079-.057-.048-.128.016-.012.012-.002.002-.037.039-.061.005.005.03.021.01v.01l-.05.006-.004.03-.047.002-.009-.058-.086.026-.174.102.02.072.048.032.098.014v.11l.045-.007.042-.087.103-.032v-.133l.058-.044.14.033-.01.088h.037l.102-.05.005.115.075.045-.003.069-.071.024.004.023.086.039-.001.047-.025.002v-.001l-.109-.034-.005-.034L3 2.965v-.032l-.034-.009-.009.03-.06.009-.006-.003v.004l-.02.003-.017-.034-.02-.009H2.79l-.02.016v.035l.038.012.036.005-.009.004-.032.036-.015-.018-.032-.008-.086.081.01.01-.127.07-.12.126-.009.055-.12.08-.06.06.006.12-.082-.039V3.5h-.23l-.12.06-.052.096-.02.076.033.074.094.011.15-.1.013.05-.046.086.114.02.012.176.156.026.099-.114.12.024.043.058.115-.006L2.653 4l.064.032.071.112.123.002.046.08.007.097.136.052.172.001.05.083.077.025-.015.068-.083.106-.024.236-.076.06-.112-.004-.038.065.028.122-.122.157-.039.071-.116.056-.077.011-.003.033.054.015-.007.035-.048.047.03.036.057.002-.003.044-.015.044-.005.036.085.072-.01.037-.117-.002-.116-.1-.09-.16.012-.152-.068-.092.027-.154-.04-.011v-.336s-.114-.086-.12-.086a.84.84 0 0 1-.06-.014l-.012-.064-.148-.185.015-.067.004-.109.103-.071-.015-.122-.15-.011-.117-.134-.082-.023-.054-.01.006-.048-.068-.01v.028l-.17-.042-.07-.105.029-.051-.109-.158-.018-.116h-.044l.015.113.075.115-.008.046-.064-.01-.078-.133v-.155l-.081-.039v-.11zm.65-.719v-.003h.043l.004-.015h.07v.03l-.02.027h-.097v-.039zm.069.095.046-.007c.004 0 0 .043 0 .043l-.096.006-.019-.022.069-.02zm.112.225.051-.025.046.012-.015.062-.05.016-.032-.065zm.272.146v.04h-.117l-.044-.011.011-.029.056-.023h.077v.023h.017zm.054.056v.04l-.03.018-.036.007v-.065h.066zm-.033-.015v-.047l.04.037-.04.01zm.018.093v.038l-.028.028H2.3l.01-.042.029-.003.006-.014.045-.007zm-.155-.078h.065l-.083.116-.034-.018.007-.049.045-.049zm.265.065v.038h-.062l-.018-.025v-.035h.006l.074.022zm-.058-.052.018-.019.03.019-.024.02-.024-.02z"/><g><path id="_312544976" d="M3.047 2.065a1.955 1.955 0 0 1 0 3.91v-3.91z" style="fill:#1b7ace"/><path id="_312544712" class="fil6" d="m4.022 2.837.004.031-.047.01-.007.068h.057l.076-.008.04-.046-.042-.016-.023-.026-.034-.056-.017-.078-.064.013-.018.028v.03l.03.022z"/><path id="_312544736" class="fil6" d="m3.968 2.863.003-.042-.038-.017-.052.012-.04.063v.04h.046z"/><path id="_312544616" class="fil6" d="M4.339 2.553c.045.04.089.082.13.126v.095l-.084.043.009.028.134.001.038-.057c.086.106.16.221.223.344l-.012.013v.087l.038-.005h.02l.036.086-.102.002-.051-.056-.01-.09-.052.028-.029.11-.075-.08-.003-.076-.073-.063-.027-.027h-.085l.027.076.102.056.018.02-.022.01v.06l-.05.02-.041-.009-.027-.037.069.003.019-.024-.153-.104-.012-.043-.062.056-.063-.013-.096.124-.018.05-.062.005h-.09l-.054-.025-.016-.108.02-.051.091-.02.1.02.013-.056-.043-.01.015-.086.101-.016.071-.1.073-.013.066.01h.024l-.013-.094-.08.033-.028-.07-.047-.007-.009-.048.038-.041.09-.036.024-.041zM3.047 5.179v-.824l.053.02.172.002.05.083.077.025-.015.068-.083.106-.024.236-.076.06-.112-.004-.038.065.028.122-.032.041zm0-2.135V2.98l.061.028-.001.047-.025.002v-.001l-.035-.01zm0-.109v-.11l.045.027-.003.069-.042.014zm0-.362v-.158l.042.018v.07l.058.015-.03.055h-.07zm1.876.897c.01.033.02.067.027.102l-.005.006.011.021a1.96 1.96 0 0 1-.392 1.654H4.5v-.13l-.075-.1v-.157l-.057-.056-.004-.065.072-.139-.137-.242.016-.164-.124-.013-.045-.046h-.083l-.042.04h-.147l-.004.013h-.082L3.6 3.98l.002-.165.03-.012.012-.063h-.044l-.018-.067.216-.156v-.11l.106-.06.043.005h.087l.068-.036.22-.018v.113l.173.044.034.024h.032v-.061l.1-.01.095.071h.156l.01-.01z"/></g></g></g><path class="fil0" d="M0 0h6.827v6.827H0z"/></svg>